<svg width="21" height="24" viewBox="0 0 21 24" fill="none" xmlns="http://www.w3.org/2000/svg">
<path d="M14.4844 0.112499C13.5422 0.360937 12.7219 0.829687 12.0188 1.52344C11.3109 2.22187 10.8844 2.92031 10.6125 3.82969C10.5094 4.18125 10.4906 4.34062 10.4813 4.89844L10.4766 5.55469L10.6641 5.56875C10.9641 5.59687 11.6672 5.48437 12.0516 5.34844C12.6328 5.14219 13.0453 4.86562 13.6172 4.28906C14.7609 3.14531 15.2438 2.09062 15.3141 0.595312L15.3422 -9.53674e-07H15.1125C14.9859 0.00468636 14.7047 0.0515614 14.4844 0.112499Z" fill="white"/>
<path d="M14.2266 5.8125C13.6453 5.89219 12.8437 6.13594 11.5312 6.63281C11.0344 6.82031 10.8937 6.85312 10.6172 6.85312C10.2703 6.84844 10.2422 6.83906 8.8125 6.30469C7.88906 5.95781 7.35468 5.84531 6.63281 5.84063C6.3 5.84063 5.89687 5.86406 5.74218 5.89688C3.075 6.46875 1.21406 8.61563 0.773433 11.6297C0.693745 12.2063 0.679683 13.5375 0.749995 14.1797C1.06875 17.0016 2.11406 19.6031 3.83437 21.8437C4.61718 22.8609 5.26875 23.4609 5.95312 23.7797C6.32812 23.9578 6.37968 23.9719 6.86718 23.9906C7.47656 24.0094 7.79062 23.9391 8.95312 23.5078C9.94218 23.1422 10.4203 23.0484 11.1094 23.0766C11.7328 23.1047 12.0937 23.1937 12.9891 23.5359C13.7859 23.8406 14.1984 23.9437 14.7375 23.9812C15.45 24.0281 16.0687 23.8406 16.6641 23.3953C17.5453 22.7297 18.9187 20.8312 19.6875 19.2C19.9734 18.5953 20.2969 17.7703 20.2969 17.6531C20.2969 17.6109 20.1703 17.5172 20.0062 17.4328C18.9187 16.8844 17.9531 15.8859 17.5359 14.8828C17.4516 14.6812 17.325 14.3109 17.2594 14.0672C17.1516 13.6547 17.1422 13.5328 17.1375 12.6797C17.1375 11.8125 17.1469 11.7094 17.2594 11.2922C17.3953 10.7906 17.6203 10.2891 17.9062 9.85781C18.1687 9.45938 18.8391 8.78906 19.3031 8.46562L19.6875 8.19375L19.5375 7.97812C18.6609 6.69375 16.9406 5.84531 15.0937 5.78906C14.7703 5.77969 14.3812 5.78906 14.2266 5.8125Z" fill="white"/>
</svg>
