<svg width="25" height="25" viewBox="0 0 25 25" fill="none" xmlns="http://www.w3.org/2000/svg">
<path d="M12.4957 6.62445V9.95445" stroke="white" stroke-width="1.5" stroke-miterlimit="10" stroke-linecap="round"/>
<path d="M12.5157 2.18445C8.83573 2.18445 5.85573 5.16445 5.85573 8.84445V10.9444C5.85573 11.6244 5.57573 12.6444 5.22573 13.2244L3.95573 15.3444C3.17573 16.6544 3.71573 18.1144 5.15573 18.5944C9.93573 20.1844 15.1057 20.1844 19.8857 18.5944C21.2357 18.1444 21.8157 16.5644 21.0857 15.3444L19.8157 13.2244C19.4657 12.6444 19.1857 11.6144 19.1857 10.9444V8.84445C19.1757 5.18445 16.1757 2.18445 12.5157 2.18445Z" stroke="white" stroke-width="1.5" stroke-miterlimit="10" stroke-linecap="round"/>
<path d="M15.8257 19.0045C15.8257 20.8345 14.3257 22.3345 12.4957 22.3345C11.5857 22.3345 10.7457 21.9545 10.1457 21.3545C9.54573 20.7545 9.16573 19.9145 9.16573 19.0045" stroke="white" stroke-width="1.5" stroke-miterlimit="10"/>
</svg>
