<svg width="24" height="25" viewBox="0 0 24 25" fill="none" xmlns="http://www.w3.org/2000/svg">
<path d="M21.67 15.0646L21.27 20.0646C21.12 21.5946 21 22.7646 18.29 22.7646H5.71C3 22.7646 2.88 21.5946 2.73 20.0646L2.33 15.0646C2.25 14.2346 2.51 13.4646 2.98 12.8746C2.99 12.8646 2.99 12.8646 3 12.8546C3.55 12.1846 4.38 11.7646 5.31 11.7646H18.69C19.62 11.7646 20.44 12.1846 20.98 12.8346C20.99 12.8446 21 12.8546 21 12.8646C21.49 13.4546 21.76 14.2246 21.67 15.0646Z" stroke="#874BE9" stroke-width="1.5" stroke-miterlimit="10"/>
<path d="M3.5 12.1949V7.04492C3.5 3.64492 4.35 2.79492 7.75 2.79492H9.02C10.29 2.79492 10.58 3.17492 11.06 3.81492L12.33 5.51492C12.65 5.93492 12.84 6.19492 13.69 6.19492H16.24C19.64 6.19492 20.49 7.04492 20.49 10.4449V12.2349" stroke="#874BE9" stroke-width="1.5" stroke-miterlimit="10" stroke-linecap="round" stroke-linejoin="round"/>
<path d="M9.42999 17.7646H14.57" stroke="#874BE9" stroke-width="1.5" stroke-miterlimit="10" stroke-linecap="round" stroke-linejoin="round"/>
</svg>
