<svg width="18" height="17" viewBox="0 0 18 17" fill="none" xmlns="http://www.w3.org/2000/svg">
<rect x="1.0389" y="0.727983" width="15.7038" height="15.7038" rx="2.3897" fill="white"/>
<rect x="1.0389" y="0.727983" width="15.7038" height="15.7038" rx="2.3897" stroke="#DDDEE1" stroke-width="0.682773"/>
<path d="M8.53151 8.93954V4.79858C7.52269 4.85185 6.57272 5.29008 5.8774 6.02295C5.18208 6.75582 4.79438 7.72747 4.79419 8.73771C4.79403 9.2557 4.89592 9.76867 5.09408 10.2473C5.29223 10.7259 5.58275 11.1607 5.94903 11.527C6.3153 11.8933 6.75018 12.1838 7.22877 12.382C7.70737 12.5801 8.22031 12.682 8.7383 12.6818C9.7485 12.6819 10.7202 12.2943 11.4529 11.5989C12.1857 10.9035 12.6235 9.95335 12.6762 8.94453L8.53151 8.93954Z" fill="#DD514C"/>
<path d="M9.28613 4.48315V8.22048H13.0235C12.9735 7.24544 12.5638 6.32357 11.8734 5.63321C11.183 4.94285 10.2612 4.53307 9.28613 4.48315V4.48315Z" fill="#DD514C"/>
</svg>
