<svg width="24" height="25" viewBox="0 0 24 25" fill="none" xmlns="http://www.w3.org/2000/svg">
<path d="M3.25 5.73889C3.25 4.22011 4.48122 2.98889 6 2.98889C7.51878 2.98889 8.75 4.22011 8.75 5.73889C8.75 7.25767 7.51878 8.48889 6 8.48889C4.48122 8.48889 3.25 7.25767 3.25 5.73889Z" fill="#2F4858"/>
<path d="M11.25 5.73889C11.25 5.32468 11.5858 4.98889 12 4.98889L20 4.98889C20.4142 4.98889 20.75 5.32468 20.75 5.73889C20.75 6.15311 20.4142 6.48889 20 6.48889L12 6.48889C11.5858 6.48889 11.25 6.15311 11.25 5.73889Z" fill="#2F4858"/>
<path d="M15.25 12.7389C15.25 11.2201 16.4812 9.98889 18 9.98889C19.5188 9.98889 20.75 11.2201 20.75 12.7389C20.75 14.2577 19.5188 15.4889 18 15.4889C16.4812 15.4889 15.25 14.2577 15.25 12.7389Z" fill="#2F4858"/>
<path d="M3.25 12.7389C3.25 12.3247 3.58579 11.9889 4 11.9889L12 11.9889C12.4142 11.9889 12.75 12.3247 12.75 12.7389C12.75 13.1531 12.4142 13.4889 12 13.4889L4 13.4889C3.58579 13.4889 3.25 13.1531 3.25 12.7389Z" fill="#2F4858"/>
<path d="M3.25 19.7389C3.25 18.2201 4.48122 16.9889 6 16.9889C7.51878 16.9889 8.75 18.2201 8.75 19.7389C8.75 21.2577 7.51878 22.4889 6 22.4889C4.48122 22.4889 3.25 21.2577 3.25 19.7389Z" fill="#2F4858"/>
<path d="M11.25 19.7389C11.25 19.3247 11.5858 18.9889 12 18.9889H20C20.4142 18.9889 20.75 19.3247 20.75 19.7389C20.75 20.1531 20.4142 20.4889 20 20.4889H12C11.5858 20.4889 11.25 20.1531 11.25 19.7389Z" fill="#2F4858"/>
<circle cx="17.9785" cy="12.7389" r="2.77148" fill="#874BE9"/>
<circle cx="6.02148" cy="5.76038" r="2.77148" fill="#874BE9"/>
<circle cx="6.02148" cy="19.7174" r="2.77148" fill="#874BE9"/>
</svg>
