<svg width="16" height="12" viewBox="0 0 16 12" fill="none" xmlns="http://www.w3.org/2000/svg">
<path d="M2.65625 0.382079C2.57539 0.403173 2.44531 0.508642 2.28008 0.677392C1.13398 1.85864 0.40625 3.34224 0.174219 4.96997C0.096875 5.52192 0.096875 6.48169 0.174219 7.03013C0.402734 8.6438 1.13398 10.1379 2.2625 11.3051C2.39609 11.4387 2.54727 11.5688 2.6 11.5899C2.74414 11.6426 2.99727 11.6321 3.13438 11.5688C3.36641 11.4563 3.49297 11.0977 3.39453 10.834C3.37344 10.7813 3.22227 10.5915 3.05703 10.4122C2.15 9.4313 1.60859 8.34497 1.36953 7.03716C1.28164 6.54497 1.28164 5.45513 1.36953 4.96294C1.55586 3.93638 1.9707 2.96606 2.55781 2.17856C2.65977 2.03794 2.8918 1.76724 3.06758 1.57388C3.42266 1.18716 3.48594 1.05708 3.42969 0.818017C3.3875 0.628173 3.29609 0.512157 3.11328 0.417235C2.94453 0.332861 2.84961 0.32583 2.65625 0.382079Z" fill="#874BE9"/>
<path d="M12.9219 0.452344C12.7004 0.564844 12.6055 0.723047 12.6055 0.969141C12.6055 1.20469 12.6301 1.24687 12.9746 1.60547C13.7164 2.37891 14.2895 3.43359 14.5531 4.50586C14.7219 5.19141 14.7676 6.23555 14.6586 6.92812C14.4512 8.27461 13.8641 9.46641 12.9324 10.4367C12.6195 10.7637 12.5703 10.848 12.5703 11.0695C12.5703 11.3965 12.7988 11.625 13.1258 11.625C13.2277 11.625 13.3543 11.6039 13.4105 11.5758C13.5406 11.5055 14.0891 10.9289 14.3527 10.5809C15.1613 9.50508 15.6535 8.28516 15.8398 6.89648C15.8961 6.47461 15.8855 5.44805 15.8223 4.98047C15.6008 3.38789 14.9012 1.93242 13.8113 0.79336C13.5723 0.547266 13.4527 0.445312 13.3508 0.417188C13.1574 0.357422 13.1012 0.364453 12.9219 0.452344Z" fill="#874BE9"/>
<path d="M5.24014 2.1293C5.03271 2.22773 4.62842 2.67773 4.33311 3.13477C3.99912 3.65508 3.74951 4.25273 3.59482 4.88906C3.53154 5.1668 3.521 5.31094 3.521 6C3.521 6.68906 3.53154 6.8332 3.59482 7.11094C3.81279 8.00742 4.20654 8.78789 4.77959 9.45586C5.11357 9.84258 5.2542 9.9375 5.49326 9.9375C5.79912 9.9375 5.99248 9.79336 6.06631 9.51211C6.12607 9.29063 6.05928 9.12539 5.79912 8.84063C5.22607 8.21484 4.86045 7.5082 4.71631 6.73828C4.64248 6.36211 4.64248 5.63789 4.71631 5.26172C4.85693 4.50586 5.22959 3.77461 5.76396 3.19453C6.07334 2.86406 6.12607 2.66719 5.99248 2.39297C5.85889 2.11523 5.51436 1.9957 5.24014 2.1293Z" fill="#874BE9"/>
<path d="M10.229 2.0977C10.113 2.1434 9.9407 2.3684 9.91258 2.502C9.87039 2.73403 9.91961 2.85356 10.2079 3.177C10.577 3.59887 10.7177 3.79575 10.904 4.16137C11.5684 5.46215 11.4735 7.03364 10.6579 8.25708C10.5876 8.36958 10.3942 8.61215 10.2325 8.79497C9.91961 9.15005 9.87039 9.26255 9.91609 9.50161C9.93016 9.57544 9.99344 9.68794 10.0708 9.77231C10.1938 9.90239 10.222 9.91645 10.4153 9.93051C10.57 9.94106 10.6614 9.927 10.7598 9.8813C10.904 9.8145 11.3188 9.36098 11.5895 8.97426C11.8145 8.65786 12.1204 8.03208 12.2505 7.63481C12.4509 7.01606 12.4825 6.78403 12.4825 6.00005C12.4825 5.427 12.4684 5.21606 12.4157 4.98051C12.2083 4.03481 11.7934 3.20161 11.1677 2.48794C10.8688 2.1434 10.7387 2.06254 10.4997 2.06606C10.3907 2.06606 10.2712 2.08012 10.229 2.0977Z" fill="#874BE9"/>
<path d="M7.62734 4.91367C7.33906 4.99805 6.99102 5.34961 6.91016 5.64141C6.89258 5.71172 6.875 5.87695 6.875 6.00703C6.875 6.66094 7.34258 7.125 8 7.125C8.66094 7.125 9.125 6.66094 9.125 6C9.125 5.33203 8.65742 4.87148 7.98945 4.87852C7.84883 4.87852 7.68711 4.89609 7.62734 4.91367Z" fill="#874BE9"/>
</svg>
