<svg width="31" height="30" viewBox="0 0 31 30" fill="none" xmlns="http://www.w3.org/2000/svg">
<g clip-path="url(#clip0_53_231)">
<path d="M2.27295 4.55285C2.10303 4.60559 1.9624 4.67004 1.9624 4.69934C1.9624 4.7345 4.88037 7.68176 8.45459 11.256L14.9409 17.7482L15.2222 17.7892C15.8726 17.8771 15.3687 18.3282 22.4644 11.2208C26.0151 7.66418 28.9155 4.72864 28.9155 4.69934C28.9155 4.67004 28.7632 4.59973 28.5757 4.547C28.2651 4.4591 27.0991 4.45325 15.4038 4.4591C4.00732 4.46496 2.54248 4.47082 2.27295 4.55285Z" fill="white"/>
<path d="M0.579586 6.16418C0.474117 6.40442 0.468258 6.77942 0.45068 14.8771C0.438961 22.2716 0.45068 23.379 0.526852 23.6368C0.573727 23.8009 0.63818 23.9767 0.673336 24.0236C0.720211 24.0939 1.64599 23.1974 5.28466 19.5587L9.84326 15.0001L5.30224 10.4591C2.80615 7.96301 0.743648 5.91809 0.72607 5.91809C0.702633 5.91809 0.63818 6.02942 0.579586 6.16418Z" fill="white"/>
<path d="M25.5757 10.4591L21.0347 15.0001L25.5933 19.5587C29.2319 23.1974 30.1577 24.0939 30.2046 24.0236C30.2397 23.9767 30.3042 23.8009 30.3511 23.6368C30.4272 23.379 30.439 22.2716 30.4272 14.8771C30.4097 6.77942 30.4038 6.40442 30.2983 6.16418C30.2397 6.02942 30.1753 5.91809 30.1519 5.91809C30.1343 5.91809 28.0718 7.96301 25.5757 10.4591Z" fill="white"/>
<path d="M6.45654 20.7423C3.98389 23.2208 1.9624 25.2716 1.9624 25.3009C1.9624 25.3302 2.11475 25.4005 2.30225 25.4532C2.61279 25.5411 3.78467 25.547 15.439 25.547C27.0933 25.547 28.2651 25.5411 28.5757 25.4532C28.7632 25.4005 28.9155 25.3302 28.9155 25.3009C28.9155 25.2716 26.8882 23.215 24.4097 20.7247L19.9038 16.2013L18.4741 17.6134C17.2671 18.8146 16.9917 19.0548 16.6694 19.2072C15.8784 19.5939 14.9937 19.5939 14.2144 19.213C13.8862 19.0548 13.6167 18.8204 12.4155 17.6251C11.6421 16.8575 10.9917 16.2306 10.9741 16.2306C10.9624 16.2306 8.92334 18.2579 6.45654 20.7423Z" fill="white"/>
</g>
<defs>
<clipPath id="clip0_53_231">
<rect width="30" height="30" fill="white" transform="translate(0.438965 0.00012207)"/>
</clipPath>
</defs>
</svg>
