<svg width="31" height="30" viewBox="0 0 31 30" fill="none" xmlns="http://www.w3.org/2000/svg">
<path d="M14.2671 0.7677C11.0913 0.984497 8.18506 2.07434 5.62451 4.00208C5.021 4.45911 3.55029 5.92981 3.09326 6.53333C1.76318 8.297 0.972168 10.0958 0.57959 12.2169C0.450684 12.9025 0.403809 14.9181 0.491699 15.6212C0.743652 17.59 1.42334 19.4767 2.43115 21.0294L2.79443 21.5861L2.72412 22.1661C2.40186 24.9669 1.69873 27.0587 0.690918 28.213C0.47998 28.4532 0.438965 28.547 0.438965 28.7462C0.438965 28.9982 0.57959 29.1857 0.825684 29.2618C1.12451 29.3497 4.03076 28.6935 5.63037 28.1779C6.76709 27.8087 8.08545 27.2755 8.78857 26.9005L9.32178 26.6193L9.78467 26.7892C11.478 27.4161 13.5405 27.7736 15.439 27.7736C23.1206 27.7736 29.6069 22.5177 30.3862 15.6564C30.4741 14.8536 30.4272 12.9142 30.2983 12.2169C29.9058 10.09 29.1206 8.30286 27.7847 6.53333C27.3276 5.92981 25.8569 4.45911 25.2534 4.00208C22.646 2.03918 19.8101 0.990356 16.4878 0.761841C15.5503 0.697388 15.2456 0.697388 14.2671 0.7677ZM9.12842 12.422C9.87256 12.7032 10.3999 13.4708 10.3999 14.2853C10.3999 15.4161 9.22217 16.4005 8.12646 16.1779C7.67529 16.09 7.32959 15.8966 7.0249 15.5743C6.68506 15.2111 6.521 14.8361 6.4917 14.3556C6.43311 13.5236 6.98975 12.6915 7.81006 12.3927C8.14404 12.2697 8.75928 12.2872 9.12842 12.422ZM16.2886 12.4923C17.478 13.1075 17.7534 14.6544 16.8394 15.5919C16.4351 16.0079 16.0015 16.1954 15.439 16.1954C15.0874 16.1954 14.9292 16.1603 14.6597 16.0372C13.6636 15.5802 13.2124 14.42 13.6694 13.4591C13.9214 12.9259 14.355 12.5392 14.9116 12.3575C14.9937 12.3282 15.269 12.3165 15.5269 12.3282C15.8901 12.34 16.0601 12.3751 16.2886 12.4923ZM23.2378 12.4689C23.6714 12.6798 23.9702 12.9786 24.1812 13.4064C24.3511 13.7521 24.3745 13.8517 24.3745 14.2677C24.3687 14.8361 24.2456 15.1583 23.853 15.5743C23.0562 16.424 21.8257 16.4181 21.0112 15.5568C20.5425 15.0646 20.3667 14.3673 20.5483 13.7462C20.7183 13.1603 21.187 12.6388 21.7319 12.422C22.1421 12.2579 22.8569 12.2814 23.2378 12.4689Z" fill="white"/>
</svg>
