<svg width="100" height="100" viewBox="0 0 100 100" fill="none" xmlns="http://www.w3.org/2000/svg">
<circle cx="50" cy="50" r="49.8074" fill="white"/>
<path d="M61.1132 26.6036C59.9834 26.6036 58.9461 25.9553 58.4275 24.9551L57.0939 22.2694C56.2419 20.5839 54.0192 19.1947 52.13 19.1947H47.8884C45.9806 19.1947 43.758 20.5839 42.9059 22.2694L41.5723 24.9551C41.0537 25.9553 40.0165 26.6036 38.8866 26.6036C34.8673 26.6036 31.6815 29.9931 31.9408 33.9939L32.904 49.2932C33.1262 53.1088 35.1822 56.239 40.2943 56.239H59.7055C64.8177 56.239 66.8551 53.1088 67.0959 49.2932L68.059 33.9939C68.3184 29.9931 65.1325 26.6036 61.1132 26.6036ZM47.2216 28.9188H52.7782C53.5377 28.9188 54.1674 29.5486 54.1674 30.308C54.1674 31.0674 53.5377 31.6972 52.7782 31.6972H47.2216C46.4622 31.6972 45.8324 31.0674 45.8324 30.308C45.8324 29.5486 46.4622 28.9188 47.2216 28.9188ZM49.9999 49.0524C46.5548 49.0524 43.7394 46.2556 43.7394 42.7919C43.7394 39.3283 46.5363 36.5315 49.9999 36.5315C53.4636 36.5315 56.2604 39.3283 56.2604 42.7919C56.2604 46.2556 53.445 49.0524 49.9999 49.0524Z" fill="#292D32"/>
<path d="M50 65.2077C45.1657 65.2077 41.2263 69.147 41.2263 73.9813C41.2263 78.8156 45.1657 82.755 50 82.755C54.8343 82.755 58.7736 78.8156 58.7736 73.9813C58.7736 69.147 54.8343 65.2077 50 65.2077ZM53.5094 74.6394H50.658V77.4908C50.658 77.8505 50.3597 78.1488 50 78.1488C49.6403 78.1488 49.342 77.8505 49.342 77.4908V74.6394H46.4905C46.1308 74.6394 45.8325 74.3411 45.8325 73.9813C45.8325 73.6216 46.1308 73.3233 46.4905 73.3233H49.342V70.4719C49.342 70.1121 49.6403 69.8138 50 69.8138C50.3597 69.8138 50.658 70.1121 50.658 70.4719V73.3233H53.5094C53.8692 73.3233 54.1675 73.6216 54.1675 73.9813C54.1675 74.3411 53.8692 74.6394 53.5094 74.6394Z" fill="#292D32"/>
</svg>
