<svg width="53" height="52" viewBox="0 0 53 52" fill="none" xmlns="http://www.w3.org/2000/svg">
<rect x="0.333496" width="52" height="52" rx="26" fill="#874BE9"/>
<path d="M25.9684 18.8874C19.2316 22.4053 13.6707 25.3302 13.6099 25.386C13.4325 25.5431 13.3564 25.7408 13.3564 26.0247C13.3564 26.339 13.4933 26.5924 13.7265 26.7141C13.8127 26.7597 15.4094 27.3173 17.2749 27.956C20.1136 28.9242 20.6813 29.1017 20.7472 29.051C20.8131 29.0003 28.5486 22.3901 33.9625 17.762L34.8242 17.0219L34.439 17.4781C32.7966 19.4298 23.8952 30.1915 23.9154 30.2067C23.9307 30.2219 32.6597 33.2178 35.0777 34.039C35.6099 34.2164 36.0155 34.11 36.2385 33.7247C36.3145 33.598 36.6592 31.3676 37.8201 23.5712C38.6413 18.0712 39.3104 13.4482 39.3104 13.2961C39.3104 12.7892 39.0063 12.485 38.4993 12.485C38.2307 12.4901 37.8758 12.6675 25.9684 18.8874Z" fill="white"/>
<path d="M22.7852 34.0899C22.7852 36.6904 22.7852 36.6955 22.9017 36.9185C23.0437 37.2024 23.2211 37.3291 23.51 37.3595C23.7939 37.395 24.0474 37.3139 24.2197 37.1314C24.4782 36.8627 27.246 33.0457 27.2105 33.0153C27.1852 32.995 26.2119 32.6554 25.0409 32.2549C23.87 31.8544 22.8815 31.5199 22.8511 31.5047C22.8004 31.4895 22.7852 32.0268 22.7852 34.0899Z" fill="white"/>
</svg>
